<svg width="150" height="150" xmlns="http://www.w3.org/2000/svg" preserveAspectRatio="xMidYMid meet" version="1.0">
<g>
<path d="m67.25,14.09523c-4.8,3 -6,9.9 -2.8,16l1.5,2.9l-4.6,2.2c-2.5,1.2 -7.8,5.4 -11.9,9.4c-6.2,6.1 -7.5,7.9 -9,12.9c-2.5,8.6 -0.6,16.1 6.8,26.5c3,4.2 3.1,4.4 1.8,9c-3.1,10.9 -2.2,13.7 5.1,14.8c2.1,0.4 3.8,1 3.8,1.3c0,1.6 -9.8,3.1 -19.6,3.1c-12.2,0 -14.7,0.9 -19.2,7.1l-3.1,4.2l3.9,5.8c2.2,3.2 5,6.5 6.1,7.3c1.9,1.3 2.4,1.3 4.5,-0.1c1.4,-0.9 8.2,-2.3 15.7,-3.3c16.1,-2.2 20.3,-3.3 25.1,-6.5l3.8,-2.6l3.2,2.1c5.7,3.5 11.7,5.1 25.9,7c9.5,1.2 14.4,2.3 15.7,3.5c1.4,1.3 2.3,1.4 3.9,0.6c1.9,-1.1 10.1,-12.1 10.1,-13.7c0,-1.5 -5.4,-7.7 -8.4,-9.5c-2.5,-1.5 -5,-1.9 -13.3,-1.9c-10.1,0 -20.3,-1.6 -20.3,-3.2c0,-0.4 1.1,-0.8 2.5,-0.8c3.5,0 8.2,-2.6 8.9,-4.8c0.3,-0.9 -0.3,-4.8 -1.4,-8.6l-1.9,-6.8l3.9,-5.7c9.7,-14.3 9.1,-25.7 -2.1,-37c-4.2,-4.2 -12.5,-10.1 -16.1,-11.4c-1.5,-0.5 -1.4,-0.9 0.4,-4.6c2.6,-5.2 1.8,-10.3 -2.2,-14.3c-2.4,-2.4 -3.6,-2.8 -8.2,-2.8c-3.5,0 -6.4,0.7 -8.5,1.9zm11.1,6.7c1.9,1.8 2,2.8 0.6,5.5c-2,3.7 -8,1.8 -8,-2.6c0,-4.2 4.4,-5.9 7.4,-2.9zm-0.2,30.6c-0.3,3.7 -0.3,3.8 3.2,3.8c3.4,0 3.6,0.2 3.6,3.4c0,3.2 -0.3,3.5 -3.2,3.8c-3.1,0.3 -3.3,0.6 -3.3,4.1c0,3.5 -0.2,3.7 -3.2,3.7c-3.2,0 -3.3,-0.2 -3.3,-4c0,-3.7 -0.2,-4 -2.9,-4c-2.4,0 -2.9,-0.5 -3.3,-3c-0.5,-3.6 -0.3,-4 3.4,-4c2.6,0 2.8,-0.3 2.8,-4.1c0,-3.9 0.1,-4 3.3,-3.7c3.1,0.3 3.2,0.5 2.9,4zm14.5,30.4c0.3,0.9 0,2 -0.8,2.5c-1.6,1.1 -33.4,0.8 -34.4,-0.3c-0.4,-0.4 -0.5,-1.4 -0.2,-2.3c1,-2.3 34.5,-2.3 35.4,0.1zm-1.3,10c2.1,0.8 2,3 -0.1,3.9c-1,0.4 -7.5,0.9 -14.4,1.2c-15.7,0.7 -23.8,-1.4 -18.1,-4.6c1.8,-1.1 30,-1.5 32.6,-0.5z"/>
</g>
</svg>