<svg width="150" height="150" xmlns="http://www.w3.org/2000/svg" preserveAspectRatio="xMidYMid meet" version="1.0">
<g>
<path d="m70.95225,18.48218c-1,3.2 -1.5,3.6 -4.6,3.6c-3.2,0 -3.4,0.2 -3.4,3.4c0,3 0.5,3.8 4,5.7c2.2,1.3 4,3 4,3.8c0,0.8 -2.1,3.7 -4.7,6.3c-4.2,4.2 -4.7,5.3 -5.1,10.3c-0.2,3 -0.6,5.5 -0.9,5.5c-0.2,0 -1.7,-0.9 -3.2,-2.1c-6.5,-4.8 -18.3,-5.5 -26.1,-1.4c-4,2.1 -8.7,7.9 -9.9,12.2c-2.3,8.2 -0.9,13 7.6,26c6.3,9.5 8,14.1 8.9,24.6c1,11 3.1,13.5 13.8,16.3c12.3,3.3 41,2.6 51.7,-1.1c7.2,-2.6 8.6,-4.6 9.4,-13.4c1.1,-11.2 3.4,-17.6 10.3,-28c6.6,-9.9 7.7,-13.4 7,-21.2c-1.5,-15.1 -18.9,-22.8 -33.8,-15.1l-5.8,3l-0.7,-5.5c-0.6,-4.8 -1.2,-6 -5.1,-9.7c-5.4,-5.2 -5.6,-7.7 -0.9,-10.6c2.9,-1.8 3.5,-2.8 3.5,-5.6c0,-3.2 -0.2,-3.4 -3.4,-3.4c-2.9,0 -3.4,-0.4 -4.2,-3.3c-0.8,-2.6 -1.5,-3.3 -4.1,-3.5c-2.8,-0.3 -3.2,0.1 -4.3,3.2zm-19.5,40.6c9.8,4.7 16.7,14 18,24c1.1,8 1.4,8.8 4,9.4c4.1,1 6.5,-0.9 6.5,-5.3c0,-14.3 14.5,-30.1 27.5,-30.1c9.6,0 15.5,5.3 15.5,13.9c0,7.3 -8.1,20.9 -15.5,26c-2.9,1.9 -4.7,2.3 -10.6,2.3c-3.9,-0.1 -10.4,-0.6 -14.5,-1.2c-5.2,-0.8 -9.5,-0.8 -14.7,-0.1c-7.5,1.1 -13.8,1.5 -19.7,1.2c-2.9,-0.1 -4.5,-1.2 -9.5,-6.4c-10.4,-10.9 -14,-22 -9.6,-29.3c3.8,-6.2 14.5,-8.3 22.6,-4.4zm46.4,56.4c1.9,0.6 3.6,1.6 3.8,2.3c0.9,2.6 -3.2,3.1 -15,2.1c-8,-0.7 -15.4,-0.7 -23.4,0c-11.4,1 -15.3,0.5 -15.3,-1.9c0,-1.8 5.4,-3.1 15.5,-3.8c12,-0.9 29.7,-0.2 34.4,1.3z" id="svg_3"/>
<path d="m38.25225,62.18218c-4,1.2 -7.3,5.3 -7.3,9.2c0,4.6 3.8,11.6 9.5,17.3c4.5,4.5 5.6,5.1 10.5,5.7c6.1,0.7 12.8,-0.5 14.2,-2.5c2.1,-3.1 -1.2,-15.2 -5.7,-21.2c-5.5,-7 -14.1,-10.5 -21.2,-8.5z" id="svg_4"/>
<path d="m103.25225,62.08218c-9.1,2.1 -16.5,11.3 -18.4,22.8c-1.3,8.1 0.3,9.4 10.6,9.4c7.4,0 7.7,-0.1 12.3,-3.9c6.2,-5.2 11.2,-13.5 11.2,-18.6c0,-2.9 -0.7,-4.6 -2.9,-6.8c-1.6,-1.6 -3.8,-2.9 -4.9,-2.9c-1.1,0 -2.6,-0.2 -3.4,-0.4c-0.7,-0.2 -2.8,0 -4.5,0.4z" id="svg_5"/>
</g>
</svg>