<svg width="150" height="150" xmlns="http://www.w3.org/2000/svg" preserveAspectRatio="xMidYMid meet" version="1.0">
<g>
<path d="m36.19773,24.79345c-2.4,2.5 -2.7,3.5 -2.7,10.3l0,7.5l7.5,7.4l7.5,7.4l0,17.6l0,17.5l-9.5,9.5l-9.5,9.5l0,6.6c0,10.6 -3.3,9.9 45.7,9.9c48.7,0 45.3,0.8 45.3,-10.1l0,-6.4l-9,-9l-9,-9l0,-18l0,-18.1l7,-6.9l7,-6.9l0,-8.6c0,-7.7 -0.2,-8.9 -2.3,-10.8c-1.9,-1.8 -3.5,-2.2 -9.3,-2.2c-7.5,0 -9.4,0.9 -9.4,4.7c0,2 -0.5,2.3 -3.5,2.3c-3,0 -3.5,-0.3 -3.5,-2.3c0,-4.1 -1.7,-4.7 -13,-4.7c-11.3,0 -13,0.6 -13,4.7c0,2 -0.5,2.3 -3.5,2.3c-2.7,0 -3.5,-0.4 -3.5,-1.8c0,-3.6 -3.2,-5.2 -10.1,-5.2c-5.8,0 -6.8,0.3 -9.2,2.8zm59.3,34.7l0,3.5l-20.2,-0.2l-20.3,-0.3l-0.3,-3.3l-0.3,-3.2l20.5,0l20.6,0l0,3.5zm0,32.5l0,3l-20.5,0l-20.5,0l0,-3l0,-3l20.5,0l20.5,0l0,3z"/>
</g>
</svg>