<svg width="150" height="150" xmlns="http://www.w3.org/2000/svg" preserveAspectRatio="xMidYMid meet" version="1.0">
<g>
<path d="m66.8,23.55867c-6.8,3.5 -9.1,10.1 -6.4,17.8c0.9,2.4 1.5,4.5 1.4,4.6c-0.2,0.1 -2,1.1 -4,2.4c-6.7,4 -9.7,14.6 -6.4,22.4c0.7,1.8 2.8,4.5 4.6,6.1c2.6,2.2 3,2.9 1.9,3.6c-5,2.8 -12.2,9.2 -14.8,13c-4.7,7 -6.3,12.5 -6.8,24.2l-0.6,10.8l39.3,0l39.3,0l-0.6,-10.8c-0.4,-7.3 -1.2,-12.5 -2.7,-16.4c-2.5,-6.7 -9.3,-14.7 -15.6,-18.4c-2.4,-1.4 -4.4,-2.8 -4.4,-3.1c0,-0.3 1.2,-1.4 2.6,-2.6c3.1,-2.4 6.3,-9 6.4,-13.1c0,-5.3 -2.3,-10.6 -6,-14c-2.1,-1.8 -4.3,-3.5 -5,-3.8c-1.1,-0.3 -1.1,-1.1 -0.2,-3.8c0.7,-1.8 1.2,-5.2 1.2,-7.6c0,-10.4 -12.9,-16.8 -23.2,-11.3z"/>
</g>
</svg>