<svg width="150" height="150" xmlns="http://www.w3.org/2000/svg" preserveAspectRatio="xMidYMid meet" version="1.0">
<g>
<path d="m65.63605,25.4l-3.2,3.9l-5.4,-2.5c-3,-1.4 -7.6,-2.6 -10.1,-2.6l-4.6,-0.2l0.2,7c0.2,8.4 -1,12.3 -10.9,33.4c-4,8.5 -8.3,18.4 -9.5,22.2c-2.2,6.5 -2.3,6.8 -0.5,9.6c2.5,4.2 6.2,6.8 11.6,8.3c3.2,0.9 5.1,1 6.3,0.3c1.2,-0.8 1.8,-0.5 2.6,1.1c0.6,1.2 2,2.2 3.2,2.4c1.7,0.3 3.2,-1.2 7.2,-7.1c2.7,-4.1 6.4,-8.6 8.2,-10.1c3.6,-3.1 10.9,-7 11.6,-6.3c1,1 -3.8,10 -9.5,18c-3.3,4.5 -6.6,9.5 -7.5,11.2c-1.2,2.4 -3.7,12 -3.7,14c0,0.3 17.3,0.5 38.4,0.5l38.3,0l0.7,-4.6c2.2,-16.7 -2,-43.6 -9.1,-57.9c-8.8,-17.5 -21.6,-28.8 -34.7,-30.4c-4.7,-0.6 -5,-0.8 -6.3,-4.8c-1.4,-4.2 -6.2,-9.3 -8.8,-9.3c-0.8,0 -2.8,1.8 -4.5,3.9zm20.8,19.6c10.4,3.1 24.4,19.7 29.4,35c3,9.1 4.8,20.5 4.8,30.4c0,7.2 -1.5,10.6 -4.2,9.6c-2.1,-0.8 -2.8,-3.6 -2.8,-12.1c0,-9.4 -2.4,-23.1 -5.4,-30.4c-5.4,-13.2 -16.4,-25.1 -26.6,-28.7c-4.8,-1.7 -6.3,-3.6 -3.7,-4.6c2,-0.9 3.1,-0.8 8.5,0.8zm-29.1,8.2c0.3,0.7 -1.3,3.1 -3.4,5.3c-2.9,3.2 -4.6,4.2 -7.3,4.3c-5.1,0.3 -5.3,-3.2 -0.6,-7.9c3,-3 4.1,-3.5 7.2,-3.2c2.1,0.2 3.9,0.8 4.1,1.5zm-25.7,36.1c0,2.5 -2.1,5 -4.5,5.4c-1.6,0.2 -1.9,-0.2 -1.7,-2.2c0.4,-4.1 6.2,-7.1 6.2,-3.2z"/>
</g>
</svg>