<svg width="150" height="150" xmlns="http://www.w3.org/2000/svg" preserveAspectRatio="xMidYMid meet" version="1.0">
<g>
<path d="m68.76711,18.58623c-3.5,2.7 -4.1,6.8 -2,13.5c2.3,7.3 2.2,17.3 -0.1,29.2l-1.7,9l-2.3,-5c-4.8,-10.6 -7.3,-19.8 -7.1,-26c0.1,-3.3 0.2,-7.2 0.2,-8.7c0.2,-6.5 -7.2,-11.1 -13.6,-8.4c-4.2,1.7 -5.7,3.8 -6.3,8.4c-0.4,3.3 -0.1,4.4 2.6,7.4c4.5,5.1 5.1,7.7 5.1,20.6l-0.1,11.7l-3.9,-4.3c-6.2,-6.9 -8.4,-12.3 -7.6,-19c0.5,-4.7 0.3,-6.3 -1.4,-9c-3.4,-5.5 -8.7,-6.6 -14,-3c-6.2,4.2 -5.9,12.5 0.5,17.3c2.8,2.2 3.3,3.3 3.9,8.5c0.4,3.2 2,10.9 3.5,16.9c2.5,9.7 3.5,11.8 7.9,17.3c2.7,3.5 5.7,7.8 6.6,9.6c1.6,3.1 1.6,3.5 -0.9,10.3c-4.3,12 -3.5,13.4 9,16.6c9.6,2.4 45.4,2.4 56.4,0c11.8,-2.6 13.3,-5.5 8.5,-16.9c-1.5,-3.6 -2.3,-7 -2,-8.4c0.3,-1.2 3.4,-5.7 6.7,-10c5.9,-7.4 6.2,-8.1 9,-19.6c1.5,-6.6 3.1,-14.3 3.4,-17.2c0.6,-4.3 1.2,-5.4 3.9,-7.1c6.9,-4.5 6.5,-14.7 -0.7,-18.1c-4.4,-2.1 -8,-1.3 -11.9,2.7c-2.9,2.9 -3,3.2 -2.3,9.3c0.6,5.6 0.3,7 -1.8,11.2c-1.4,2.7 -4.1,6.7 -6.1,8.9l-3.5,4l-0.3,-6c-0.7,-15.5 0.6,-21.8 5,-25.9c7.5,-6.7 -0.7,-19.8 -10.3,-16.6c-6,2 -7,4.1 -6.7,14.1c0.2,7.7 -0.1,10.1 -2.7,17.9c-1.7,5 -3.9,10.7 -4.9,12.7l-1.9,3.6l-1.6,-9c-2.1,-11.3 -2.2,-22.7 -0.2,-28.3c2.2,-6.2 1.9,-10.3 -1,-13.4c-2.9,-3.2 -9.6,-3.6 -13.3,-0.8zm9.6,4.4c1.7,1.7 1.5,5.3 -0.3,6.8c-3.8,3.1 -9.6,-2.7 -6.5,-6.5c1.5,-1.8 5.1,-2 6.8,-0.3zm-28.6,6.2c2.3,3.5 0,6.8 -4.3,6.4c-2.9,-0.3 -3.4,-0.7 -3.7,-3.3c-0.3,-1.9 0.2,-3.3 1.4,-4.2c1.9,-1.4 5.4,-0.8 6.6,1.1zm57.2,-1.1c1.2,0.9 1.7,2.3 1.4,4.2c-0.2,2.4 -0.8,3.1 -3.1,3.3c-5.4,0.6 -7.7,-4.3 -3.5,-7.2c2.7,-1.9 3,-1.9 5.2,-0.3zm-81.6,11.9c1.7,1.7 1.5,5.3 -0.3,6.8c-2,1.7 -6.2,0.5 -7,-2c-1.4,-4.4 4.1,-8 7.3,-4.8zm105.6,0.4c1.9,1.8 2,2.8 0.6,5.5c-2,3.7 -8,1.8 -8,-2.6c0,-4.2 4.4,-5.9 7.4,-2.9zm-27.9,48.5c2.8,1 4.1,2.1 4.3,3.5l0.3,2.2l-32.5,-0.1c-31,-0.1 -32.6,-0.2 -32.6,-1.9c0,-4.2 10.9,-5.8 36.5,-5.4c13.5,0.3 21.3,0.8 24,1.7zm-4.1,21.8c2.1,0.5 4.6,1.7 5.5,2.5c1.3,1.4 1.3,1.8 0.1,3c-1.3,1.2 -4,1.3 -16,0.7c-8,-0.5 -20.5,-0.5 -27.9,0c-13.1,0.9 -16.1,0.4 -16.1,-2.2c0,-1.6 5.7,-3.8 12.1,-4.8c7.6,-1.2 36.7,-0.6 42.3,0.8z"/>
</g>
</svg>