<svg width="150" height="150" xmlns="http://www.w3.org/2000/svg" preserveAspectRatio="xMidYMid meet" version="1.0">
<g>
<path d="m34.177,24.29499c-2.5,2.6 -2.7,3.5 -2.7,10.9l0,8.1l7.9,6.9l8,6.8l0,18.5l0.1,18.5l-9,9l-9,9l0,7c0,4.2 0.5,7.6 1.2,8.3c0.9,0.9 12,1.2 43.8,1.2c49.3,0 46,0.7 46,-9.6l0,-5.9l-9.5,-9.7l-9.5,-9.7l0,-17.9l0,-18l8,-6.8l8,-6.9l0,-8.6c0,-8 -0.2,-8.7 -2.8,-11.2c-2.5,-2.4 -3.5,-2.7 -10.3,-2.7c-8.4,0 -12.2,2 -11.2,6c0.5,1.7 0.1,2 -2.6,2c-2.6,0 -3.1,-0.4 -3.1,-2.3c0,-4.5 -2.8,-5.7 -13.2,-5.7c-10.3,0 -12.8,1.2 -12.8,5.8c0,1.7 -0.6,2.2 -2.5,2.2c-2,0 -2.5,-0.5 -2.5,-2.3c0,-4.3 -2.9,-5.7 -11.6,-5.7c-7.5,0 -8.2,0.2 -10.7,2.8zm16.3,7.5c0,3.6 1.9,4.7 8.1,4.7c7.6,0 8.9,-0.6 8.9,-4.1l0,-2.9l7,0c6.6,0 7,0.1 7,2.3c0,3.7 1.9,4.7 9.2,4.7c5.8,0 6.9,-0.3 7.8,-2.1c0.7,-1.1 0.9,-2.7 0.6,-3.5c-0.4,-1.1 0.7,-1.4 5.3,-1.4c6.7,0 7.1,0.5 7.1,7.8c0,4.5 -0.2,4.9 -6,9.4l-5.9,4.8l-24.8,0l-24.8,0l-6,-4.8c-5.9,-4.8 -6,-5 -6,-9.8c0.1,-2.7 0.4,-5.5 0.9,-6.2c0.4,-0.7 2.9,-1.2 6.2,-1.2c5,0 5.4,0.2 5.4,2.3zm45,42.7l0,16l-20.6,-0.2l-20.5,-0.3l-0.2,-15.8l-0.2,-15.7l20.8,0l20.7,0l0,16zm6.7,27.2c2.9,2.9 5.3,5.5 5.3,5.8c0,0.3 -14.7,0.4 -32.7,0.2l-32.7,-0.3l5.4,-5.4l5.4,-5.5l22,0l22,0l5.3,5.2zm12.3,16.3l0,3.5l-39.5,0l-39.5,0l0,-3.5l0,-3.5l39.5,0l39.5,0l0,3.5z"/>
</g>
</svg>