<svg width="150" height="150" xmlns="http://www.w3.org/2000/svg" preserveAspectRatio="xMidYMid meet" version="1.0">
<g>
<path d="m66.43266,24.5c-1.4,1.6 -2.7,3.4 -2.9,4c-0.2,0.7 -2.3,0.2 -5.6,-1.5c-2.8,-1.4 -7.5,-2.9 -10.3,-3.2l-5.1,-0.6l0.7,6.1c0.8,7 -0.6,13 -5.9,24.4c-9.4,20.5 -13.5,29.8 -15,34.5l-1.8,5.3l2.9,4c3.2,4.5 8.4,7.4 12,6.7c1.7,-0.3 3.2,0.3 4.9,2c3.9,3.9 7.1,2.8 11.6,-3.7c2.1,-3 5.5,-7.2 7.6,-9.3c3.8,-4 11.9,-9.3 12.8,-8.4c1.2,1.2 -1.4,6.6 -8.1,16.7c-7.3,10.8 -11.5,19.9 -11.5,24.5l0,2.5l37.9,0l37.9,0l0.7,-7.3c0.9,-9.4 -0.9,-28.9 -3.5,-39.2c-3.8,-14.7 -12,-28.9 -21.7,-37.5c-6.4,-5.6 -11.4,-8.1 -17.9,-8.7c-5,-0.5 -5.4,-0.8 -6.5,-4c-1.4,-4.4 -6.6,-10.3 -8.9,-10.3c-1,0 -2.9,1.3 -4.3,3zm-13.5,6.6l3.2,1.6l-2.5,1.4c-3.7,2.1 -4.9,1.7 -4.9,-1.6c0,-3.5 0.1,-3.5 4.2,-1.4zm19.8,3.2c3,9.6 2.5,9.2 10.3,9.2c5.3,0 7.8,0.5 10.3,2.1c5.5,3.4 14.6,14.2 19.1,22.5c6.5,12.2 8.4,20.3 9,38.1l0.6,15.2l-30.2,0.3c-24,0.2 -30.1,0 -30.1,-1c0,-1.9 3.7,-8.8 8.9,-16.7c7,-10.5 9.1,-15.9 9.1,-23.5c0,-2.5 1.1,-8.2 2.4,-12.6c2.6,-8.7 2.5,-10.9 -0.5,-9.4c-2.5,1.4 -6.5,8.5 -7.9,14c-1,4 -1.7,4.9 -5.7,7c-6.1,3.2 -13.8,10.4 -18.8,17.4c-4.3,5.9 -6.2,6.6 -5.7,2.1c0.3,-2.6 0.1,-2.7 -2.5,-2.1c-7.6,1.9 -8.8,1.8 -11.6,-1c-2.2,-2.1 -2.7,-3.4 -2.2,-5.3c0.3,-1.5 4.8,-11.4 9.9,-22.1c5.1,-10.7 9.9,-20.9 10.6,-22.7c1,-2.6 2.3,-3.6 6.7,-5.3c8.8,-3.3 13.3,-5.9 14.5,-8.5c1.4,-3.1 2.3,-2.5 3.8,2.3z"/>
<path d="m49.03266,53.5c-3.3,2 -5,5.7 -3.9,8.5c0.8,2.2 3.3,1.9 8.3,-1c4.1,-2.5 6.3,-6.1 4.8,-8.4c-1,-1.7 -5.7,-1.3 -9.2,0.9z"/>
<path d="m31.23266,87.1c-2.2,2.3 -1.5,5.8 1.2,6.2c3,0.4 5.3,-3.9 3.3,-6.3c-1.6,-1.9 -2.5,-1.9 -4.5,0.1z"/>
</g>
</svg>