<svg width="150" height="150" xmlns="http://www.w3.org/2000/svg" preserveAspectRatio="xMidYMid meet" version="1.0">
<g>
<path d="m70.66852,12.63832c-4.9,1.5 -7.7,5.3 -7.7,10.4c0,2.5 0.7,5.6 1.7,7.1c1,1.5 1.6,2.7 1.4,2.8c-18.3,9.1 -28.3,22 -26.2,34.1c0.8,4.9 4.3,12.1 8,16.5l2.6,3.2l-1.6,6.4c-0.9,3.5 -1.6,7.3 -1.6,8.4c0,2.9 2.6,5 7.8,6.3l4.7,1.2l-5,1.4c-2.9,0.8 -9.3,1.4 -15.4,1.3c-11.9,0 -14.1,0.8 -19.5,7l-3.5,4.1l3.8,5.7c2.1,3.1 4.8,6.5 6,7.5c1.9,1.8 2.2,1.8 3.9,0.3c1.1,-1 6.1,-2.1 14.7,-3.2c15.2,-1.9 21.5,-3.6 26.7,-7l3.7,-2.5l3.6,2.1c5.3,3.2 11.8,4.9 25.8,6.9c7.8,1.1 13.8,2.5 15.4,3.6l2.7,1.7l4,-4.5c2.3,-2.5 4.9,-5.9 5.8,-7.5c1.7,-3 1.7,-3.1 -1.1,-7c-4.3,-5.9 -8.1,-7.3 -19.3,-7.1c-10,0.3 -22,-1.9 -18.3,-3.3c1.1,-0.4 3.5,-1.3 5.3,-1.9c5,-1.9 5.4,-3.7 3.1,-12l-2.1,-7.3l2.1,-2.6c4.3,-5.5 7.3,-11.4 8.4,-16.6c0.9,-4.6 0.8,-6.3 -0.7,-11.2c-2.7,-8.6 -12,-17.3 -25.4,-24c-0.2,-0.1 0.3,-1.2 1.1,-2.5c5,-8 0.8,-17.2 -8.4,-18.3c-1.9,-0.2 -4.8,0 -6.5,0.5zm8.6,8c1.1,1.1 2,2.7 2,3.5c0,2.1 -3.6,5.5 -5.8,5.5c-3,0 -5.4,-2.5 -5.4,-5.5c0,-5.1 5.5,-7.2 9.2,-3.5zm2.5,17.9c6.3,2.9 16.2,10.7 19.1,15.1c5,7.6 3.8,18.7 -2.5,22.4c-6.3,3.6 -37.8,4 -45.4,0.5c-5.6,-2.6 -8.3,-12.8 -5.1,-19.5c3.9,-8.3 20.2,-20.4 27.3,-20.4c1.4,0 4.4,0.9 6.6,1.9zm12.7,49.1l-0.4,3.5l-18.8,0l-18.8,0l-0.4,-3.5l-0.3,-3.5l19.5,0l19.5,0l-0.3,3.5zm-0.3,10c2.8,1.4 2.7,3.6 -0.1,4.3c-4.4,1.1 -27.5,2 -33.2,1.3c-5.8,-0.8 -8,-2.6 -5.7,-4.9c2.5,-2.5 34.5,-3.2 39,-0.7zm-12.3,13.5c6.7,4.8 11.8,6.2 26.4,7.4c10.8,0.9 12.7,1.3 14.2,3.2c1.4,1.6 1.5,2.5 0.7,4.1c-1,1.8 -1.7,1.9 -8.7,1.3c-20.2,-1.7 -31.9,-4.9 -36.6,-10l-2.4,-2.6l-2.6,2.6c-3.4,3.4 -9.6,6.1 -17.1,7.4c-10.8,1.8 -26.3,3.3 -27.4,2.6c-0.6,-0.3 -1.1,-1.7 -1.1,-3.1c0,-3.6 4.3,-5 17,-5.7c13.1,-0.8 17.1,-1.9 24,-6.8c3,-2.1 6.2,-3.9 7.1,-3.9c0.8,0 3.8,1.6 6.5,3.5z"/>
<path d="m72.06852,51.33832c-0.3,3.3 -0.7,3.8 -3,4.1c-2.5,0.3 -2.8,0.8 -2.8,3.8c0,3.1 0.2,3.4 3,3.4c2.8,0 3,0.2 3,4c0,3.8 0.2,4 3,4c2.8,0 3,-0.2 3,-3.9c0,-3.7 0.2,-4 3.3,-4.3c2.8,-0.3 3.2,-0.7 3.5,-3.5c0.3,-2.9 0.1,-3.2 -3,-3.5c-3,-0.3 -3.3,-0.6 -3.6,-4.1c-0.3,-3.3 -0.6,-3.7 -3.2,-3.7c-2.6,0 -2.9,0.4 -3.2,3.7z"/>
</g>
</svg>