<svg width="150" height="150" xmlns="http://www.w3.org/2000/svg" preserveAspectRatio="xMidYMid meet" version="1.0">
<g>
<path d="m69.45,22.39506c-7.7,2.3 -11.6,10.3 -9.1,18.6c1.3,4.3 1.3,4.9 -0.1,5.7c-3.9,2.2 -8.4,7.1 -9.5,10.4c-2.4,7.2 0.7,17.5 6.3,20.7l3.1,1.9l-3.4,1.7c-5.1,2.7 -12.6,9.7 -15.4,14.4c-3.3,5.6 -5.5,15.5 -5.5,24.8l0,7.8l39.1,0l39.2,0l-0.6,-10.3c-0.3,-5.6 -1.3,-12.5 -2.2,-15.3c-2.4,-7.1 -7.9,-14 -15,-18.8l-6.1,-4.1l4.2,-4c4.7,-4.5 6,-8.7 4.9,-16c-0.6,-4.5 -5.1,-10.4 -9.8,-13c-1.7,-0.9 -1.7,-1.3 -0.2,-5.7c4.2,-12.1 -6.9,-22.6 -19.9,-18.8zm8.5,6c1.8,0 4.9,4 4.9,6.4c0,1.3 -0.9,4.3 -1.9,6.6c-1.1,2.4 -1.7,4.9 -1.4,5.6c0.2,0.7 2.2,2.4 4.4,3.9c5.2,3.4 7.9,7.9 7.9,13.3c0,4.5 -1.7,6.8 -8.8,12.5c-2.9,2.3 -1.7,4.7 4.6,9c12.9,8.9 18.1,16.8 19,28.7l0.5,7l-32.3,0l-32.3,0l0.5,-7c0.9,-12.1 5.4,-18.7 19.8,-29.3c5.8,-4.3 6.2,-6.7 1.5,-10.4c-9.2,-7.1 -8.6,-16.8 1.4,-23.9c4.4,-3.2 5.1,-5.9 2.6,-10.4c-3.7,-6.5 0.8,-14.1 7.3,-12.4c0.8,0.2 1.8,0.4 2.3,0.4z"/>
</g>
</svg>