<svg width="150" height="150" xmlns="http://www.w3.org/2000/svg" preserveAspectRatio="xMidYMid meet" version="1.0">
<g>
<path d="m71.39132,18.4594c-1.2,2.8 -2.1,3.5 -4.7,3.8c-2.9,0.3 -3.3,0.7 -3.6,3.5c-0.3,2.9 0.1,3.4 3.7,5.3c4.7,2.3 5.6,6.1 2.1,8c-4,2.1 -8,9 -8,13.7c0,4 -1.1,5.5 -2.4,3.4c-1.5,-2.3 -9.9,-5.1 -15.5,-5.1c-12.2,0 -20.7,6.7 -22.5,17.6c-1.2,6.7 0.2,10.8 7.4,21.9c7,10.8 8.4,14.5 9.9,27.1c0.5,3.9 1.4,8 2,9.1c1.5,3 8.5,5.9 17.3,7.3c10.5,1.7 36.3,0.8 43.7,-1.5c8.2,-2.5 10.6,-5.5 11.4,-14c1.1,-10.9 3.2,-17.1 8.6,-25.3c6.7,-10.3 9.1,-15.8 9.1,-21.4c0,-6 -1.3,-9.5 -5.3,-13.6c-7.7,-8.1 -18.7,-9.9 -28.7,-4.6c-3,1.6 -5.8,3 -6.2,3.2c-0.5,0.2 -0.8,-2.2 -0.8,-5.3c0,-5.3 -0.2,-5.8 -4.5,-9.9c-5.5,-5.4 -5.7,-7.7 -1,-10.6c2.9,-1.8 3.5,-2.8 3.5,-5.6c0,-3.2 -0.2,-3.4 -3.4,-3.4c-3,0 -3.6,-0.4 -4.6,-3.5c-0.9,-2.7 -1.7,-3.5 -3.6,-3.5c-1.9,0 -2.9,0.8 -3.9,3.4zm6.9,26.7c2.9,1.3 4.6,5.5 4.6,11c0,3.8 -5.5,15.9 -7.5,16.6c-0.6,0.2 -2.5,-2.3 -4.3,-5.6c-4.9,-9 -4.4,-19.9 1.1,-22.1c3,-1.2 3.2,-1.2 6.1,0.1zm-27,14.4c9.9,4.7 19.2,17.6 19.8,27.5l0.3,4.5l-5.5,1.1c-3,0.6 -10.3,1.4 -16.2,1.8l-10.8,0.7l-4.6,-6.3c-7.8,-10.6 -9.2,-16.4 -5.4,-23.7c1.7,-3.4 3.8,-5 10,-7.5c2.4,-0.9 8.4,0 12.4,1.9zm63.2,-0.6c4.9,2.2 8.1,6.4 9,11.8c0.8,4.9 -1,9.4 -7.2,17.8l-4.7,6.4l-6.1,-0.4c-3.4,-0.3 -9.5,-0.7 -13.7,-1c-4.2,-0.2 -8.9,-0.9 -10.4,-1.5c-2.6,-1 -2.7,-1.4 -2.2,-5.6c0.7,-6.5 6,-16.7 11,-21c5.2,-4.5 13.2,-8.4 17.2,-8.4c1.7,0 4.8,0.9 7.1,1.9zm-21.8,41.6c7.9,0.7 14.6,1.6 14.9,1.8c0.5,0.5 -1.3,13.6 -1.9,14.2c-0.2,0.2 -3.4,-0.4 -7.3,-1.3c-12.3,-2.8 -40.3,-2.1 -52,1.3c-1.8,0.6 -2.1,-0.1 -3.2,-6.7c-0.6,-4 -1,-7.4 -0.9,-7.6c0.2,-0.1 5.7,-0.7 12.2,-1.3c6.5,-0.6 13.7,-1.5 15.9,-1.9c2.2,-0.5 4.9,-0.6 6,-0.4c1.1,0.3 8.5,1.1 16.3,1.9zm3.5,21.6c3.6,0.9 4.9,3.1 2.7,4.4c-2.3,1.4 -26.5,2.4 -35.9,1.5c-13.3,-1.3 -15.8,-2.5 -10.9,-5.1c4.6,-2.5 35.1,-3 44.1,-0.8z"/>
</g>
</svg>