<svg width="150" height="150" xmlns="http://www.w3.org/2000/svg" preserveAspectRatio="xMidYMid meet" version="1.0">
<g>
<path d="m67.95794,19.55507c-3.3,3.4 -3.6,6 -1.3,12.2c2.1,5.7 2.1,19.8 -0.1,29.8c-0.8,4.1 -1.7,7.6 -1.9,7.8c-0.5,0.5 -6.5,-15.1 -8.1,-21.4c-1.1,-4.1 -1.4,-7.9 -0.9,-12.9c0.6,-6.5 0.4,-7.2 -2,-10.1c-6.3,-7.5 -17.6,-3.6 -17.6,6.2c0,3.5 0.6,5.1 3.1,7.9c1.6,1.9 3.4,5 4,6.8c1,3.7 1.2,14.4 0.3,20.1l-0.7,3.8l-2.8,-3.3c-6.6,-7.5 -8.3,-11.7 -8.1,-19.1c0.2,-8 -1.4,-11.9 -5.7,-13.7c-6.5,-2.6 -14.1,2.6 -14.1,9.7c0,2.8 0.8,4.4 3.9,7.5c3.2,3.1 4.2,5.1 5.1,9.6c0.6,3.1 2.3,11 3.7,17.6c2.4,10.7 3.1,12.2 6.8,16.5c9.1,10.2 9.7,12.1 6.6,19.3c-2.8,6.5 -3.5,11.9 -1.8,14.2c2.1,2.9 12.3,4.6 32.2,5.3c19,0.6 36.1,-0.7 42.2,-3.2c3.4,-1.4 3.8,-2.5 3.3,-9c-0.1,-1.6 -1.1,-4.6 -2.1,-6.7c-3.5,-6.9 -2.8,-8.9 6.7,-20.6c4.3,-5.2 6.5,-12.4 9.9,-31.6c1.1,-6.3 1.7,-7.6 5.5,-11.4c3.9,-3.9 4.2,-4.5 3.7,-8.3c-1,-7.7 -8.7,-12.1 -14.5,-8.3c-4.5,2.9 -5.2,4.5 -5.1,12c0.2,7.9 -1.5,12.1 -7.4,19.2c-3.3,3.9 -3.5,4 -4.1,1.9c-1,-3.8 -0.7,-18.2 0.5,-21.8c0.7,-1.9 2.5,-5.2 4,-7.3c3.8,-5.2 3.8,-9.6 0.1,-13.7c-2.4,-2.6 -3.6,-3.2 -7.2,-3.2c-3.7,0 -4.8,0.5 -7.3,3.3c-2.8,3.2 -2.9,3.6 -2.3,10c0.7,7.8 -1.5,17.9 -6.2,28.6c-3.4,7.6 -3.3,7.6 -5.7,-6c-2,-11.6 -1.9,-14.7 0.6,-24.1c1.7,-6.5 1.8,-8.3 0.8,-10.7c-2.7,-6.5 -10.9,-8 -16,-2.9zm10.9,5.7c0.4,3.8 -1.8,5.9 -5.3,5c-2,-0.5 -2.5,-1.2 -2.5,-4c0,-4.1 0.7,-4.8 4.5,-4.4c2.5,0.3 3,0.8 3.3,3.4zm-30.4,2.7c1.2,0.9 1.7,2.3 1.4,4.2c-0.2,2.5 -0.8,3.1 -3.3,3.3c-1.9,0.3 -3.3,-0.2 -4.2,-1.4c-1.7,-2.4 -1.7,-3 0.7,-5.4c2.4,-2.4 3,-2.4 5.4,-0.7zm58,0c1.2,0.9 1.7,2.3 1.4,4.2c-0.3,2.7 -0.7,3 -3.7,3c-4.4,0 -6.1,-3.5 -3.1,-6.5c2.3,-2.3 3,-2.4 5.4,-0.7zm-81.6,11.9c2,2 1.5,6.6 -0.8,7.3c-3.7,1.2 -6,-0.3 -6,-4c0,-1.8 0.6,-3.6 1.3,-3.8c2.2,-0.9 4.3,-0.7 5.5,0.5zm106,0c2.7,2.7 0.7,7.8 -2.9,7.8c-2.1,0 -4.9,-2.6 -4.9,-4.5c0,-3.5 5.3,-5.8 7.8,-3.3zm-78.8,14.5c0,2.4 6,14 9.7,18.8l3.6,4.8l1.8,-2.4c2.1,-2.7 6.9,-16.8 6.9,-20.3c0,-5.4 1.5,-3 3.6,5.7c2.2,9.2 5.8,17.2 7.4,16.2c1.9,-1.2 8.3,-11.8 11.5,-19l3.5,-8l0,6.5c0,6.8 2.3,22.6 3.4,23.7c0.3,0.3 4.7,-3.5 9.7,-8.6c5,-5 8.8,-8.3 8.5,-7.4c-0.3,1 -1.3,5.2 -2.2,9.3c-1.5,7.1 -3.8,13 -5,13c-0.2,0 -2.3,-1 -4.6,-2.1c-15,-7.7 -51.6,-7.8 -68.5,-0.3c-4.1,1.8 -5.9,2.1 -6.9,1.3c-0.7,-0.5 -2.2,-5.2 -3.4,-10.2c-1.1,-5.1 -2.3,-9.9 -2.6,-10.9c-0.3,-0.9 3.6,2.5 8.6,7.5c5,4.9 9.3,8.7 9.6,8.4c1.1,-1.1 3.4,-16.9 3.4,-23.7c0,-4.6 0.3,-6.1 1,-5c0.5,0.8 1,2.1 1,2.7zm32,31.3c6.3,0.6 13.3,1.5 15.5,2.1c3.8,1 7.5,3.4 7.5,4.9c0,0.3 -14.4,0.6 -32,0.7c-17.6,0 -32,-0.3 -32,-0.8c0,-1.3 4.3,-3.9 8.5,-5.1c2.2,-0.6 7.6,-1.4 12,-1.8c4.4,-0.4 8.2,-0.8 8.5,-0.8c0.3,-0.1 5.7,0.3 12,0.8zm13.2,14.7c6.7,0.6 6.8,0.6 6,3.2c-0.4,1.4 -0.7,4 -0.6,5.6l0,3.1l-5,-0.7c-2.8,-0.4 -13,-0.8 -22.6,-0.8c-9.6,0 -19.8,0.4 -22.6,0.8l-5,0.7l0,-3.1c0.1,-1.6 -0.3,-4.2 -0.7,-5.7c-0.7,-2.6 -0.6,-2.7 4,-3.1c8.6,-0.6 39.7,-0.7 46.5,0zm3.5,18.3c4,1.4 4.9,3.6 2.1,5.1c-5.2,2.8 -42.9,3.3 -53,0.8c-3.9,-1 -5.2,-3.9 -2.6,-5.5c3.8,-2.4 47.1,-2.7 53.5,-0.4z"/>
</g>
</svg>